{
  "source": "C:\\Users\\Peter\\Desktop\\stuff\\MIUN\\quantitative_research\\video_compression\\videos\\BVI-HD\\BVI-HD_CDVL_videos\\ORIG\\BricksLeaves_1920x1080_60fps.mp4",
  "output": "C:\\Users\\Peter\\Desktop\\stuff\\MIUN\\quantitative_research\\video_compression\\compressed_videos\\BVI-HD\\vp9\\2.5\\BricksLeaves_1920x1080_60fps_vp9.webm",
  "codec": "vp9",
  "ok": "Input #0, mov,mp4,m4a,3gp,3g2,mj2, from 'C:\\Users\\Peter\\Desktop\\stuff\\MIUN\\quantitative_research\\video_compression\\videos\\BVI-HD\\BVI-HD_CDVL_videos\\ORIG\\BricksLeaves_1920x1080_60fps.mp4':\n  Metadata:\n    major_brand     : isom\n    minor_version   : 512\n    compatible_brands: isomiso2avc1mp41\n    encoder         : Lavf54.28.101\n  Duration: 00:00:05.00, start: 0.000000, bitrate: 524627 kb/s\n  Stream #0:0[0x1](und): Video: h264 (High 4:4:4 Predictive) (avc1 / 0x31637661), yuv420p(progressive), 1920x1080, 524622 kb/s, 60 fps, 60 tbr, 60 tbn (default)\n    Metadata:\n      handler_name    : VideoHandler\n      vendor_id       : [0][0][0][0]\n[out#0/webm @ 000001926f409040] Codec AVOption b:a (set bitrate (in bits/s)) has not been used for any stream. The most likely reason is either wrong type (e.g. a video option with no video streams) or that it is a private option of some decoder which was not actually used for any stream.\nStream mapping:\n  Stream #0:0 -> #0:0 (h264 (native) -> vp9 (libvpx-vp9))\nPress [q] to stop, [?] for help\n[libvpx-vp9 @ 0000019270070640] v1.15.2-100-g40561f514\nOutput #0, webm, to 'C:\\Users\\Peter\\Desktop\\stuff\\MIUN\\quantitative_research\\video_compression\\compressed_videos\\BVI-HD\\vp9\\2.5\\BricksLeaves_1920x1080_60fps_vp9.webm':\n  Metadata:\n    major_brand     : isom\n    minor_version   : 512\n    compatible_brands: isomiso2avc1mp41\n    encoder         : Lavf62.3.100\n  Stream #0:0(und): Video: vp9, yuv420p(tv, progressive), 1920x1080, q=2-31, 2500 kb/s, 60 fps, 1k tbn (default)\n    Metadata:\n      encoder         : Lavc62.11.100 libvpx-vp9\n      handler_name    : VideoHandler\n      vendor_id       : [0][0][0][0]\n    Side data:\n      cpb: bitrate max/min/avg: 0/0/0 buffer size: 2500000 vbv_delay: N/A\nframe=    0 fps=0.0 q=0.0 size=       0KiB time=N/A bitrate=N/A speed=N/A elapsed=0:00:00.52    \nframe=    5 fps=4.2 q=59.0 size=       1KiB time=00:00:00.08 bitrate=  60.8kbits/s speed=0.0702x elapsed=0:00:01.18    \nframe=   12 fps=7.1 q=53.0 size=       1KiB time=00:00:00.20 bitrate=  25.3kbits/s speed=0.118x elapsed=0:00:01.69    \nframe=   19 fps=8.6 q=53.0 size=       1KiB time=00:00:00.31 bitrate=  16.0kbits/s speed=0.143x elapsed=0:00:02.21    \nframe=   24 fps=8.8 q=54.0 size=       1KiB time=00:00:00.40 bitrate=  12.7kbits/s speed=0.147x elapsed=0:00:02.73    \nframe=   31 fps=9.5 q=57.0 size=       1KiB time=00:00:00.51 bitrate=   9.8kbits/s speed=0.159x elapsed=0:00:03.24    \nframe=   37 fps=9.8 q=38.0 size=       1KiB time=00:00:00.61 bitrate=   8.2kbits/s speed=0.164x elapsed=0:00:03.76    \nframe=   43 fps= 10 q=59.0 size=       1KiB time=00:00:00.71 bitrate=   7.1kbits/s speed=0.168x elapsed=0:00:04.27    \nframe=   49 fps= 10 q=42.0 size=       1KiB time=00:00:00.81 bitrate=   6.2kbits/s speed=0.17x elapsed=0:00:04.79    \nframe=   55 fps= 10 q=59.0 size=       1KiB time=00:00:00.91 bitrate=   5.5kbits/s speed=0.172x elapsed=0:00:05.32    \nframe=   61 fps= 10 q=42.0 size=       1KiB time=00:00:01.01 bitrate=   5.0kbits/s speed=0.174x elapsed=0:00:05.84    \nframe=   67 fps= 11 q=59.0 size=       1KiB time=00:00:01.11 bitrate=   4.5kbits/s speed=0.175x elapsed=0:00:06.36    \nframe=   72 fps= 10 q=59.0 size=       1KiB time=00:00:01.20 bitrate=   4.2kbits/s speed=0.174x elapsed=0:00:06.88    \nframe=   78 fps= 11 q=59.0 size=       1KiB time=00:00:01.30 bitrate=   3.9kbits/s speed=0.175x elapsed=0:00:07.40    \nframe=   84 fps= 11 q=59.0 size=       1KiB time=00:00:01.40 bitrate=   3.6kbits/s speed=0.177x elapsed=0:00:07.91    \nframe=   89 fps= 11 q=59.0 size=       1KiB time=00:00:01.48 bitrate=   3.4kbits/s speed=0.176x elapsed=0:00:08.45    \nframe=   95 fps= 11 q=60.0 size=       1KiB time=00:00:01.58 bitrate=   3.2kbits/s speed=0.176x elapsed=0:00:08.97    \nframe=  100 fps= 11 q=60.0 size=       1KiB time=00:00:01.66 bitrate=   3.0kbits/s speed=0.175x elapsed=0:00:09.50    \nframe=  106 fps= 11 q=60.0 size=       1KiB time=00:00:01.76 bitrate=   2.9kbits/s speed=0.176x elapsed=0:00:10.02    \nframe=  112 fps= 11 q=61.0 size=       1KiB time=00:00:01.86 bitrate=   2.7kbits/s speed=0.177x elapsed=0:00:10.55    \nframe=  118 fps= 11 q=60.0 size=       1KiB time=00:00:01.96 bitrate=   2.6kbits/s speed=0.178x elapsed=0:00:11.07    \nframe=  125 fps= 11 q=60.0 size=       1KiB time=00:00:02.08 bitrate=   2.4kbits/s speed=0.18x elapsed=0:00:11.59    \nframe=  128 fps= 11 q=60.0 size=       1KiB time=00:00:02.13 bitrate=   2.4kbits/s speed=0.176x elapsed=0:00:12.09    \nframe=  135 fps= 11 q=60.0 size=     512KiB time=00:00:02.25 bitrate=1864.1kbits/s speed=0.178x elapsed=0:00:12.63    \nframe=  139 fps= 11 q=60.0 size=     512KiB time=00:00:02.31 bitrate=1810.5kbits/s speed=0.176x elapsed=0:00:13.17    \nframe=  146 fps= 11 q=62.0 size=     512KiB time=00:00:02.43 bitrate=1723.7kbits/s speed=0.178x elapsed=0:00:13.67    \nframe=  151 fps= 11 q=61.0 size=     512KiB time=00:00:02.51 bitrate=1666.6kbits/s speed=0.177x elapsed=0:00:14.20    \nframe=  158 fps= 11 q=62.0 size=     512KiB time=00:00:02.63 bitrate=1592.8kbits/s speed=0.179x elapsed=0:00:14.74    \nframe=  163 fps= 11 q=62.0 size=     512KiB time=00:00:02.71 bitrate=1543.9kbits/s speed=0.178x elapsed=0:00:15.26    \nframe=  169 fps= 11 q=62.0 size=     512KiB time=00:00:02.81 bitrate=1489.1kbits/s speed=0.178x elapsed=0:00:15.79    \nframe=  175 fps= 11 q=62.0 size=     512KiB time=00:00:02.91 bitrate=1438.0kbits/s speed=0.179x elapsed=0:00:16.32    \nframe=  179 fps= 11 q=62.0 size=     512KiB time=00:00:02.98 bitrate=1405.9kbits/s speed=0.177x elapsed=0:00:16.88    \nframe=  185 fps= 11 q=61.0 size=     512KiB time=00:00:03.08 bitrate=1360.3kbits/s speed=0.177x elapsed=0:00:17.41    \nframe=  189 fps= 11 q=60.0 size=     512KiB time=00:00:03.15 bitrate=1331.5kbits/s speed=0.176x elapsed=0:00:17.93    \nframe=  196 fps= 11 q=60.0 size=     512KiB time=00:00:03.26 bitrate=1284.0kbits/s speed=0.177x elapsed=0:00:18.46    \nframe=  201 fps= 11 q=61.0 size=     512KiB time=00:00:03.35 bitrate=1252.0kbits/s speed=0.176x elapsed=0:00:18.99    \nframe=  208 fps= 11 q=61.0 size=     512KiB time=00:00:03.46 bitrate=1209.9kbits/s speed=0.177x elapsed=0:00:19.54    \nframe=  213 fps= 11 q=61.0 size=     512KiB time=00:00:03.55 bitrate=1181.5kbits/s speed=0.177x elapsed=0:00:20.06    \nframe=  220 fps= 11 q=61.0 size=     512KiB time=00:00:03.66 bitrate=1143.9kbits/s speed=0.178x elapsed=0:00:20.60    \nframe=  225 fps= 11 q=61.0 size=     512KiB time=00:00:03.75 bitrate=1118.5kbits/s speed=0.178x elapsed=0:00:21.12    \nframe=  232 fps= 11 q=62.0 size=     512KiB time=00:00:03.86 bitrate=1084.7kbits/s speed=0.178x elapsed=0:00:21.66    \nframe=  237 fps= 11 q=63.0 size=     512KiB time=00:00:03.95 bitrate=1061.8kbits/s speed=0.178x elapsed=0:00:22.18    \nframe=  243 fps= 11 q=63.0 size=     512KiB time=00:00:04.03 bitrate=1039.9kbits/s speed=0.177x elapsed=0:00:22.73    \nframe=  247 fps= 11 q=63.0 size=     512KiB time=00:00:04.11 bitrate=1018.9kbits/s speed=0.177x elapsed=0:00:23.29    \nframe=  251 fps= 11 q=63.0 size=     512KiB time=00:00:04.18 bitrate=1002.6kbits/s speed=0.175x elapsed=0:00:23.84    \nframe=  253 fps= 10 q=63.0 size=     512KiB time=00:00:04.21 bitrate= 994.7kbits/s speed=0.173x elapsed=0:00:24.43    \nframe=  256 fps= 10 q=63.0 size=     512KiB time=00:00:04.26 bitrate= 983.0kbits/s speed=0.171x elapsed=0:00:25.00    \nframe=  256 fps= 10 q=63.0 size=     512KiB time=00:00:04.26 bitrate= 983.0kbits/s speed=0.167x elapsed=0:00:25.60    \nframe=  260 fps=9.9 q=63.0 size=    1280KiB time=00:00:04.33 bitrate=2419.8kbits/s speed=0.166x elapsed=0:00:26.14    \nframe=  263 fps=9.9 q=63.0 size=    1280KiB time=00:00:04.38 bitrate=2392.2kbits/s speed=0.164x elapsed=0:00:26.69    \nframe=  266 fps=9.8 q=63.0 size=    1280KiB time=00:00:04.43 bitrate=2365.2kbits/s speed=0.163x elapsed=0:00:27.24    \nframe=  268 fps=9.7 q=63.0 size=    1280KiB time=00:00:04.46 bitrate=2347.6kbits/s speed=0.161x elapsed=0:00:27.76    \nframe=  271 fps=9.6 q=63.0 size=    1280KiB time=00:00:04.51 bitrate=2321.6kbits/s speed=0.16x elapsed=0:00:28.31    \nframe=  274 fps=9.5 q=63.0 size=    1280KiB time=00:00:04.56 bitrate=2296.2kbits/s speed=0.158x elapsed=0:00:28.85    \nframe=  276 fps=9.4 q=63.0 size=    1280KiB time=00:00:04.60 bitrate=2279.5kbits/s speed=0.157x elapsed=0:00:29.37    \nframe=  276 fps=9.2 q=63.0 size=    1280KiB time=00:00:04.60 bitrate=2279.5kbits/s speed=0.154x elapsed=0:00:29.91    \nframe=  276 fps=9.1 q=63.0 size=    1280KiB time=00:00:04.60 bitrate=2279.5kbits/s speed=0.151x elapsed=0:00:30.45    \nframe=  276 fps=8.9 q=63.0 size=    1280KiB time=00:00:04.60 bitrate=2279.5kbits/s speed=0.148x elapsed=0:00:31.02    \nframe=  276 fps=8.7 q=63.0 size=    1280KiB time=00:00:04.60 bitrate=2279.5kbits/s speed=0.146x elapsed=0:00:31.58    \nframe=  276 fps=8.6 q=63.0 size=    1280KiB time=00:00:04.60 bitrate=2279.5kbits/s speed=0.143x elapsed=0:00:32.12    \nframe=  276 fps=8.5 q=63.0 size=    1280KiB time=00:00:04.60 bitrate=2279.5kbits/s speed=0.141x elapsed=0:00:32.66    \nframe=  276 fps=8.3 q=63.0 size=    1280KiB time=00:00:04.60 bitrate=2279.5kbits/s speed=0.138x elapsed=0:00:33.21    \n[out#0/webm @ 000001926f409040] video:1906KiB audio:0KiB subtitle:0KiB other streams:0KiB global headers:0KiB muxing overhead: 0.145752%\nframe=  300 fps=8.9 q=63.0 Lsize=    1908KiB time=00:00:05.00 bitrate=3126.6kbits/s speed=0.149x elapsed=0:00:33.65    \n",
  "seconds": 34.105077028274536,
  "probe_out": {}
}